#N canvas 471 223 883 567 10;
#X obj 222 25 hsl 128 15 21 108 0 1 empty midinote Recieve:MidiNote
-2 -8 0 10 -262144 -1 -1 5700 0;
#X floatatom 219 87 5 0 0 0 - - -, f 5;
#X obj 219 113 / 12;
#X obj 219 142 t b f;
#X msg 219 181 2;
#X obj 219 215 pow;
#X obj 219 247 * 440;
#X msg 261 214 440;
#X floatatom 219 278 5 0 0 1 - - -, f 5;
#X obj 219 308 osc~;
#X obj 204 365 dac~;
#X msg 305 214 435;
#X text 206 404 440Hz: Internationl Standard;
#X text 205 424 435Hz: French Government;
#X text 206 443 423Hz: Handel Suggest;
#X text 206 462 422Hz: Mozart Suggest;
#X msg 347 214 423;
#X msg 390 214 422;
#X msg 96 132 \; pd dsp 1;
#X msg 96 166 \; pd dsp 0;
#X obj 219 56 - 69;
#X floatatom 271 55 5 0 0 0 - - -, f 5;
#X text 205 481 60: Middle C 261.6Hz;
#X text 205 498 69: Standard A 440Hz;
#X text 205 514 A0: Note 21 27.5Hz;
#X text 205 529 C8: Note 108 4186Hz;
#X obj 305 193 bng 15 250 50 0 empty 435 435 17 7 0 10 -262144 -1 -1
;
#X obj 261 193 bng 15 250 50 0 empty 440 440 17 7 0 10 -262144 -1 -1
;
#X obj 347 193 bng 15 250 50 0 empty 423 423 17 7 0 10 -262144 -1 -1
;
#X obj 390 193 bng 15 250 50 0 empty 422 422 17 7 0 10 -262144 -1 -1
;
#X obj 444 18 adc~;
#X floatatom 444 94 5 0 0 0 - - -, f 5;
#X obj 444 55 fiddle~ 4096 1 20 3;
#X obj 555 102 route 1 2 3 4;
#X obj 555 141 unpack;
#X floatatom 555 178 5 0 0 1 Send:Pitch - Pitch, f 5;
#X obj 95 240 bng 15 250 50 0 empty Bang Recieve:Bang 17 7 0 10 -262144
-1 -1;
#X obj 95 291 vline~;
#X obj 204 338 *~;
#X floatatom 527 249 5 0 0 0 - - -, f 5;
#X floatatom 153 26 5 0 0 0 r:midinote midinote -, f 5;
#X msg 95 265 1 10 \, 0 1000 10;
#X obj 153 58 mtof;
#X floatatom 153 89 5 0 0 0 - - -, f 5;
#X floatatom 264 278 5 0 0 1 Send:Std_freq - std_freq, f 5;
#X obj 382 19 r piano;
#X obj 382 61 s freq;
#X obj 472 178 print PITCH;
#X connect 1 0 2 0;
#X connect 2 0 3 0;
#X connect 3 0 4 0;
#X connect 3 1 5 1;
#X connect 4 0 5 0;
#X connect 5 0 6 0;
#X connect 6 0 8 0;
#X connect 6 0 44 0;
#X connect 7 0 6 1;
#X connect 8 0 9 0;
#X connect 9 0 38 1;
#X connect 11 0 6 1;
#X connect 16 0 6 1;
#X connect 17 0 6 1;
#X connect 20 0 1 0;
#X connect 26 0 11 0;
#X connect 27 0 7 0;
#X connect 28 0 16 0;
#X connect 29 0 17 0;
#X connect 30 0 32 0;
#X connect 32 0 31 0;
#X connect 32 3 39 0;
#X connect 32 4 33 0;
#X connect 33 0 34 0;
#X connect 34 0 35 0;
#X connect 34 0 47 0;
#X connect 36 0 41 0;
#X connect 37 0 38 0;
#X connect 38 0 10 0;
#X connect 38 0 10 1;
#X connect 40 0 20 0;
#X connect 40 0 21 0;
#X connect 40 0 42 0;
#X connect 41 0 37 0;
#X connect 42 0 43 0;
#X connect 45 0 46 0;
