#N canvas 424 239 837 507 10;
#X floatatom 58 151 5 0 0 0 - - -, f 5;
#X obj 58 112 fiddle~ 4096 1 20 3;
#X floatatom 141 151 5 0 0 1 - - -, f 5;
#X obj 58 75 adc~;
#X obj 141 211 print SPL;
#X obj 226 188 r test;
#X obj 226 211 s spl;
#X connect 1 0 0 0;
#X connect 1 3 2 0;
#X connect 2 0 4 0;
#X connect 3 0 1 0;
#X connect 5 0 6 0;
