#N canvas 816 442 450 300 10;
#X obj 65 80 line;
#X floatatom 65 116 7 0 0 0 - - -, f 7;
#X obj 65 148 osc~;
#X obj 66 177 *~;
#X obj 121 162 tgl 15 0 empty empty empty 17 7 0 10 -262144 -1 -1 0
1;
#X obj 67 243 dac~;
#X obj 65 23 bng 20 250 50 0 empty trigger Receive:trigger 25 7 0 10
-258113 -1 -1;
#X obj 121 117 bng 20 250 50 0 empty toggle Receive:toggle 25 7 0 10
-4034 -1 -1;
#X msg 65 50 20 \, 20000 10000;
#X obj 67 211 /~ 4;
#X connect 0 0 1 0;
#X connect 1 0 2 0;
#X connect 2 0 3 0;
#X connect 3 0 9 0;
#X connect 4 0 3 1;
#X connect 6 0 8 0;
#X connect 7 0 4 0;
#X connect 8 0 0 0;
#X connect 9 0 5 0;
#X connect 9 0 5 1;
