#N canvas 501 285 560 426 10;
#X obj 68 162 dac~;
#X obj 210 104 *~ 1;
#X obj 211 60 *~ 0.2;
#X obj 67 106 *~ 1;
#X obj 68 42 osc~ 440;
#X obj 68 62 *~ 0.2;
#X obj 211 41 osc~ 660;
#X obj 143 42 adc~ 1;
#X obj 293 64 s android;
#X obj 88 86 r left;
#X obj 163 67 r mic;
#X obj 231 83 r right;
#X obj 293 41 r test;
#X obj 369 41 loadbang;
#X obj 369 63 metro 1000;
#X obj 369 84 tgl 15 0 empty empty empty 17 7 0 10 -262144 -1 -1 1
1;
#X obj 369 128 realtime;
#X obj 369 151 print PD_RUNS;
#X obj 369 105 sel 0;
#X obj 414 106 sel 1;
#X obj 142 88 *~ 0;
#X connect 1 0 0 1;
#X connect 2 0 1 0;
#X connect 3 0 0 0;
#X connect 4 0 5 0;
#X connect 5 0 3 0;
#X connect 6 0 2 0;
#X connect 7 0 20 0;
#X connect 9 0 3 1;
#X connect 10 0 20 1;
#X connect 11 0 1 1;
#X connect 12 0 8 0;
#X connect 13 0 14 0;
#X connect 14 0 15 0;
#X connect 15 0 18 0;
#X connect 15 0 19 0;
#X connect 16 0 17 0;
#X connect 18 0 16 0;
#X connect 19 0 16 1;
#X connect 20 0 0 0;
#X connect 20 0 0 1;
