#N canvas 432 450 605 405 10;
#X obj 22 84 loadbang;
#X obj 22 127 tgl 15 0 empty empty empty 17 7 0 10 -262144 -1 -1 1
1;
#X obj 22 171 realtime;
#X obj 22 194 print PD_RUNS;
#X obj 22 148 sel 0;
#X obj 67 149 sel 1;
#X obj 22 106 metro 5000;
#X obj 276 34 receive #touch;
#X obj 276 57 route xy up down;
#X obj 156 262 dac~;
#X obj 287 180 line~;
#X obj 273 201 *~;
#X obj 287 112 bng 15 250 50 0 empty empty empty 17 7 0 10 -262144
-1 -1;
#X obj 421 167 line~;
#X obj 407 188 *~;
#X obj 420 123 bng 15 250 50 0 empty empty empty 17 7 0 10 -262144
-1 -1;
#X obj 520 179 line~;
#X obj 506 200 *~;
#X obj 519 135 bng 15 250 50 0 empty empty empty 17 7 0 10 -262144
-1 -1;
#X obj 109 84 unpack float float float;
#X obj 169 196 line~;
#X obj 155 217 *~;
#X obj 126 194 osc~;
#X obj 169 128 bng 15 250 50 0 empty empty empty 17 7 0 10 -262144
-1 -1;
#X obj 182 150 delay 100;
#X msg 200 175 0 500;
#X msg 318 159 0 500;
#X msg 168 174 0.5;
#X msg 286 158 0.5;
#X msg 422 143 0.5 \, 0 500;
#X msg 521 155 0.5 \, 0 500;
#X obj 126 165 + 400;
#X obj 465 172 osc~ 1200;
#X obj 300 134 delay 200;
#X obj 248 150 + 400;
#X obj 248 177 osc~;
#X obj 364 166 osc~ 600;
#X connect 0 0 6 0;
#X connect 1 0 4 0;
#X connect 1 0 5 0;
#X connect 2 0 3 0;
#X connect 4 0 2 0;
#X connect 5 0 2 1;
#X connect 6 0 1 0;
#X connect 7 0 8 0;
#X connect 8 0 19 0;
#X connect 8 1 15 0;
#X connect 8 2 18 0;
#X connect 10 0 11 1;
#X connect 11 0 9 1;
#X connect 12 0 28 0;
#X connect 12 0 33 0;
#X connect 13 0 14 1;
#X connect 14 0 9 0;
#X connect 15 0 29 0;
#X connect 16 0 17 1;
#X connect 17 0 9 1;
#X connect 18 0 30 0;
#X connect 19 1 23 0;
#X connect 19 1 31 0;
#X connect 19 2 12 0;
#X connect 19 2 34 0;
#X connect 20 0 21 1;
#X connect 21 0 9 0;
#X connect 22 0 21 0;
#X connect 23 0 27 0;
#X connect 23 0 24 0;
#X connect 24 0 25 0;
#X connect 25 0 20 0;
#X connect 26 0 10 0;
#X connect 27 0 20 0;
#X connect 28 0 10 0;
#X connect 29 0 13 0;
#X connect 30 0 16 0;
#X connect 31 0 22 0;
#X connect 32 0 17 0;
#X connect 33 0 26 0;
#X connect 34 0 35 0;
#X connect 35 0 11 0;
#X connect 36 0 14 0;
